<svg viewBox="0 0 72 72" xmlns="http://www.w3.org/2000/svg"><circle cx="36" cy="36" fill="#b1cc33" r="28"/><path clip-rule="evenodd" d="m34.3116 27.1581.008.0467c2.0031-.3473 4.1346-.0214 6.0328 1.0745 4.3047 2.4853 5.7795 7.9896 3.2943 12.2942l-13.2611 22.9689c11.4426 2.2785 23.5577-2.8033 29.7155-13.4689 4.2094-7.2909 4.7672-15.688 2.2408-23.0735h-26.3419c-.5771 0-1.1415.0543-1.6884.1581z" fill="#fcea2b" fill-rule="evenodd"/><path clip-rule="evenodd" d="m27 43.5-18.79773-10.8829c1.67016-13.8687 13.47873-24.6171 27.79773-24.6171 12.3156 0 22.7741 7.9511 26.5222 19h-26.5222c-4.9706 0-9 4.0294-9 9 0 2.1919.7836 4.2008 2.0858 5.7618z" fill="#ea5a47" fill-rule="evenodd"/><circle cx="36" cy="36" fill="#61b2e4" r="9"/><g fill="none" stroke="#000" stroke-width="2"><circle cx="36" cy="36" r="28"/><path d="m36 26h23" stroke-linecap="round"/><path d="m44.6602 41-11.5 19.9186" stroke-linecap="round"/><path d="m11.0814 33.1603 19.9186 11.5" stroke-linecap="round"/><circle cx="36" cy="36" r="10" transform="matrix(0 -1 1 0 0 72)"/></g></svg>