<?xml version="1.0" encoding="iso-8859-1"?>
<!-- Uploaded to: SVG Repo, www.svgrepo.com, Generator: SVG Repo Mixer Tools -->
<svg height="800px" width="800px" version="1.1" id="Layer_1" xmlns="http://www.w3.org/2000/svg" xmlns:xlink="http://www.w3.org/1999/xlink" 
	 viewBox="0 0 513.075 513.075" xml:space="preserve">
<g transform="translate(1 1)">
	<path style="fill:#FFE100;" d="M477.404,281.675c0,122.88-98.987,221.867-221.867,221.867S33.671,404.555,33.671,281.675
		S132.658,59.809,255.538,59.809S477.404,158.795,477.404,281.675"/>
	<path style="fill:#FFA800;" d="M255.538,59.809c-4.267,0-8.533,0-12.8,0c116.907,6.827,209.067,103.253,209.067,221.867
		s-92.16,215.04-209.067,221.867c4.267,0,8.533,0,12.8,0c122.88,0,221.867-98.987,221.867-221.867S378.418,59.809,255.538,59.809"/>
	<path style="fill:#FFFFFF;" d="M255.538,59.809c4.267,0,8.533,0,12.8,0C151.431,66.635,59.271,163.062,59.271,281.675
		s92.16,215.04,209.067,221.867c-4.267,0-8.533,0-12.8,0c-122.88,0-221.867-98.987-221.867-221.867S132.658,59.809,255.538,59.809"
		/>
	<g>
		<path style="fill:#FFE100;" d="M432.178,146.849c16.213-71.68-31.573-138.24-31.573-138.24
			c-5.973,32.427-19.627,59.733-32.427,81.92C392.924,105.035,414.258,124.662,432.178,146.849"/>
		<path style="fill:#FFE100;" d="M143.751,90.529c-13.653-22.187-26.453-49.493-33.28-81.92c0,0-46.933,66.56-30.72,138.24
			C96.818,123.809,119.004,105.035,143.751,90.529"/>
	</g>
	<g>
		<path style="fill:#63D3FD;" d="M383.538,196.342c0,18.773-15.36,34.133-34.133,34.133s-34.133-15.36-34.133-34.133
			s15.36-34.133,34.133-34.133S383.538,177.569,383.538,196.342"/>
		<path style="fill:#63D3FD;" d="M127.538,196.342c0,18.773,15.36,34.133,34.133,34.133s34.133-15.36,34.133-34.133
			s-15.36-34.133-34.133-34.133S127.538,177.569,127.538,196.342"/>
	</g>
	<path d="M340.871,196.342c0,5.12,3.413,8.533,8.533,8.533s8.533-3.413,8.533-8.533s-3.413-8.533-8.533-8.533
		C344.284,187.809,340.871,191.222,340.871,196.342"/>
	<path d="M153.138,196.342c0,5.12,3.413,8.533,8.533,8.533c5.12,0,8.533-3.413,8.533-8.533s-3.413-8.533-8.533-8.533
		C156.551,187.809,153.138,191.222,153.138,196.342"/>
	<path d="M255.538,418.209c-45.227,0-86.187-23.893-110.08-64c-2.56-4.267-0.853-9.387,3.413-11.947
		c4.267-2.56,9.387-0.853,11.947,3.413c19.627,34.987,55.467,55.467,94.72,55.467s75.093-20.48,94.72-55.467
		c2.56-4.267,7.68-5.12,11.947-3.413c4.267,2.56,5.12,7.68,3.413,11.947C341.724,394.315,300.764,418.209,255.538,418.209z"/>
	<path d="M255.538,512.075c-127.147,0-230.4-103.253-230.4-230.4s103.253-230.4,230.4-230.4s230.4,103.253,230.4,230.4
		S382.684,512.075,255.538,512.075z M255.538,68.342c-117.76,0-213.333,95.573-213.333,213.333s95.573,213.333,213.333,213.333
		s213.333-95.573,213.333-213.333S373.298,68.342,255.538,68.342z"/>
	<path d="M432.178,155.382c-2.56,0-5.12-0.853-6.827-3.413c-17.067-22.187-37.547-40.107-61.44-54.613
		c-1.707-0.853-3.413-3.413-4.267-5.12c-0.853-1.707,0-4.267,0.853-6.827c15.36-25.6,26.453-52.053,31.573-79.36
		c0.853-3.413,3.413-5.973,6.827-6.827s6.827,0.853,8.533,3.413s49.493,70.827,32.427,145.067c-0.853,3.413-3.413,5.973-6.827,6.827
		C433.031,155.382,432.178,155.382,432.178,155.382z M380.124,87.969c17.067,11.093,32.427,23.893,46.933,39.253
		c3.413-39.253-11.093-75.093-22.187-95.573C398.898,50.422,390.364,69.195,380.124,87.969z"/>
	<path d="M79.751,155.382c-0.853,0-0.853,0-1.707,0c-3.413-0.853-5.973-3.413-6.827-6.827
		C55.004,74.315,101.938,6.902,103.644,3.489c1.707-2.56,5.12-4.267,8.533-3.413c3.413,0.853,5.973,3.413,6.827,6.827
		c5.12,27.307,16.213,53.76,31.573,78.507c0.853,1.707,1.707,4.267,0.853,6.827c-0.853,2.56-1.707,4.267-4.267,5.12
		c-23.893,13.653-44.373,32.427-61.44,53.76C84.871,153.675,82.311,155.382,79.751,155.382z M107.058,30.795
		c-10.24,20.48-24.747,56.32-22.187,95.573c13.653-15.36,29.013-28.16,46.08-39.253C121.564,69.195,113.031,50.422,107.058,30.795z"
		/>
	<path d="M349.404,239.009c-23.893,0-42.667-18.773-42.667-42.667s18.773-42.667,42.667-42.667
		c23.893,0,42.667,18.773,42.667,42.667S373.298,239.009,349.404,239.009z M349.404,170.742c-14.507,0-25.6,11.093-25.6,25.6
		s11.093,25.6,25.6,25.6c14.507,0,25.6-11.093,25.6-25.6S363.911,170.742,349.404,170.742z"/>
	<path d="M292.231,213.409c-2.56,0-4.267-0.853-5.973-2.56c-3.413-3.413-3.413-8.533,0-11.947l66.56-66.56
		c3.413-3.413,8.533-3.413,11.947,0c3.413,3.413,3.413,8.533,0,11.947l-66.56,66.56
		C297.351,212.555,294.791,213.409,292.231,213.409z"/>
	<path d="M161.671,239.009c-23.893,0-42.667-18.773-42.667-42.667s18.773-42.667,42.667-42.667s42.667,18.773,42.667,42.667
		S185.564,239.009,161.671,239.009z M161.671,170.742c-14.507,0-25.6,11.093-25.6,25.6s11.093,25.6,25.6,25.6s25.6-11.093,25.6-25.6
		S176.178,170.742,161.671,170.742z"/>
	<path d="M218.844,213.409c-2.56,0-4.267-0.853-5.973-2.56l-66.56-66.56c-3.413-3.413-3.413-8.533,0-11.947s8.533-3.413,11.947,0
		l66.56,66.56c3.413,3.413,3.413,8.533,0,11.947C223.111,212.555,220.551,213.409,218.844,213.409z"/>
</g>
</svg>